<mxfile host="65bd71144e">
    <diagram id="txw-4fCK9djfF1fQ3ZVv" name="Page-1">
        <mxGraphModel dx="6448" dy="5708" grid="1" gridSize="10" guides="1" tooltips="1" connect="1" arrows="1" fold="1" page="1" pageScale="1" pageWidth="4681" pageHeight="3300" math="0" shadow="0">
            <root>
                <mxCell id="0"/>
                <mxCell id="1" parent="0"/>
            </root>
        </mxGraphModel>
    </diagram>
</mxfile>